<?xml version="1.0" encoding="UTF-8"?>
<svg version="1.1" xmlns="http://www.w3.org/2000/svg" width="1024" height="1024">
<path d="M0 0 C337.92 0 675.84 0 1024 0 C1024 337.92 1024 675.84 1024 1024 C686.08 1024 348.16 1024 0 1024 C0 686.08 0 348.16 0 0 Z " fill="#121B23" transform="translate(0,0)"/>
<path d="M0 0 C0.99 0.495 0.99 0.495 2 1 C1.58427734 1.97839844 1.58427734 1.97839844 1.16015625 2.9765625 C0.79792969 3.85054688 0.43570313 4.72453125 0.0625 5.625 C-0.29714844 6.48351562 -0.65679687 7.34203125 -1.02734375 8.2265625 C-6.83279859 24.78026908 -2.66649096 43.33011384 4.61450195 58.578125 C13.02407413 75.3560735 26.15509302 89.35470721 39.4453125 102.39453125 C43.63508035 106.66758194 47.32074477 111.28739401 51 116 C51.75152344 116.92296875 52.50304687 117.8459375 53.27734375 118.796875 C69.81996198 139.72258011 76.71809447 164.25339715 74.72265625 190.671875 C71.86097531 214.76450309 59.6961675 234.79173206 41 250 C18.41114871 266.55641495 -8.50372247 270.74534553 -35.82324219 267.68359375 C-40.38596687 266.90454586 -44.6541717 265.60858936 -49 264 C-50.0415625 263.63777344 -51.083125 263.27554687 -52.15625 262.90234375 C-64.31818569 258.27892748 -74.82269894 251.1619544 -84 242 C-84.77085937 241.24074219 -85.54171875 240.48148438 -86.3359375 239.69921875 C-103.21334696 222.10178328 -108.57372598 199.96176197 -108.2734375 176.265625 C-107.41991136 148.36123563 -92.21070687 122.80600666 -72.8125 103.51171875 C-71 102 -71 102 -69 102 C-69.144375 102.66902344 -69.28875 103.33804688 -69.4375 104.02734375 C-71.64680756 115.45744191 -73.56578379 130.23948468 -68 141 C-64.91711524 145.49872814 -61.57968894 149.91128021 -56 151 C-50.16294535 151.66982594 -46.66857755 150.98634863 -41.82421875 147.6171875 C-35.72521964 142.21036602 -33.1137618 134.66640335 -32.5 126.6875 C-32.63710909 119.19220328 -35.729079 112.17363575 -38.22607422 105.19921875 C-39.33411444 102.05056692 -40.3300642 98.87769744 -41.3125 95.6875 C-41.77076172 94.20830078 -41.77076172 94.20830078 -42.23828125 92.69921875 C-47.57937663 73.77256793 -44.50417473 53.47138343 -35.75 36.1875 C-27.86023468 22.49593328 -18.27240939 11.5523682 -5 3 C-4.11699219 2.41863281 -3.23398438 1.83726562 -2.32421875 1.23828125 C-1.55722656 0.82964844 -0.79023438 0.42101562 0 0 Z " fill="#FE5B20" transform="translate(255,353)"/>
<path d="M0 0 C5.21300046 3.39431702 9.74973531 7.47552469 14 12 C14.33 7.38 14.66 2.76 15 -2 C23.58 -2 32.16 -2 41 -2 C41.0905197 12.54338249 41.1638425 27.08657657 41.20724869 41.6301775 C41.22781738 48.38400721 41.25582786 55.13764862 41.30175781 61.89135742 C41.34609604 68.41415887 41.36916623 74.93683852 41.37950897 81.45978355 C41.3868758 83.94316363 41.40126131 86.42653354 41.42292023 88.90983009 C41.45213463 92.39950929 41.45594835 95.8883912 41.45410156 99.37817383 C41.46848267 100.39525925 41.48286377 101.41234467 41.49768066 102.46025085 C41.43104882 114.16512351 37.12354022 124.32466824 29.22265625 132.9375 C17.26059364 144.28800521 1.25854591 146.6304806 -14.5625 146.22265625 C-28.29828741 145.65033177 -41.06174775 140.48636224 -50.6875 130.4375 C-54.35079802 126.03811873 -60 117.88873284 -60 112 C-55.81344935 111.76644069 -51.62858126 111.62517363 -47.4375 111.5 C-46.25607422 111.43296875 -45.07464844 111.3659375 -43.85742188 111.296875 C-35.15995066 111.10197368 -35.15995066 111.10197368 -31.76733398 113.72851562 C-29.9609375 115.875 -29.9609375 115.875 -28.38549805 118.07617188 C-25.61580722 121.9220157 -21.44054278 122.94145982 -17 124 C-9.39666994 125.02875539 -1.45743111 123.84035554 5.078125 119.67578125 C10.37645009 115.43489499 12.95138544 110.70735441 14 104 C14.06701506 101.56333235 14.08528021 99.12498258 14.0625 96.6875 C14.05347656 95.43324219 14.04445313 94.17898438 14.03515625 92.88671875 C14.02355469 91.93410156 14.01195312 90.98148438 14 90 C13.18208984 90.79664063 13.18208984 90.79664063 12.34765625 91.609375 C2.24219176 101.07569046 -6.61302285 103.36027549 -20.28125 103.14453125 C-32.10563392 102.68497011 -42.11158298 97.92106851 -50.21875 89.19921875 C-62.41578883 74.14015546 -63.21003468 56.66157024 -62 38 C-60.82211981 29.09024612 -57.22098068 21.24363663 -52 14 C-51.49855469 13.29230469 -50.99710937 12.58460938 -50.48046875 11.85546875 C-39.18762619 -2.5147421 -16.63742655 -8.26074315 0 0 Z " fill="#F5EFE5" transform="translate(497,466)"/>
<path d="M0 0 C10.07894116 8.44951234 14.31990818 17.53674483 17.65625 30.21484375 C17.98625 37.47484375 18.31625 44.73484375 18.65625 52.21484375 C-5.76375 52.21484375 -30.18375 52.21484375 -55.34375 52.21484375 C-53.68574841 65.41462781 -53.68574841 65.41462781 -45.96875 75.08984375 C-39.35078068 79.23654604 -33.04374632 80.03087597 -25.34375 79.21484375 C-19.31697613 77.83078812 -15.97342303 76.09974634 -12.35546875 71.08984375 C-10.08196993 68.39086972 -8.91899534 67.34372967 -5.44091797 66.56445312 C-2.0639988 66.42846299 1.22025938 66.51538779 4.59375 66.71484375 C5.75455078 66.7509375 6.91535156 66.78703125 8.11132812 66.82421875 C10.96307388 66.91810338 13.80791795 67.04926156 16.65625 67.21484375 C15.70245032 76.26485004 11.39686453 83.36896281 4.7578125 89.5546875 C-9.32553025 100.68000473 -23.91822141 102.68664138 -41.34375 101.21484375 C-53.3559083 99.17229052 -64.67404639 92.76833421 -72.34375 83.21484375 C-83.1618755 67.84441011 -84.46298401 49.25210402 -82.04345703 30.94238281 C-79.62480595 18.90766801 -71.83780814 6.73096196 -61.9609375 -0.5390625 C-42.76612334 -12.54334283 -18.57954468 -14.15141987 0 0 Z " fill="#F4EEE5" transform="translate(864.34375,471.78515625)"/>
<path d="M0 0 C8.49565868 6.67205903 12.80292867 16.26369522 14.29296875 26.80078125 C14.56404051 32.5639302 14.5263932 38.31781126 14.48828125 44.0859375 C14.48454517 45.75459116 14.48170101 47.42324704 14.47970581 49.09190369 C14.47211615 53.45663648 14.45250843 57.82123347 14.43029785 62.18591309 C14.40973819 66.65061609 14.40068257 71.1153413 14.390625 75.58007812 C14.36925755 84.32038138 14.33411415 93.06054871 14.29296875 101.80078125 C5.38296875 101.80078125 -3.52703125 101.80078125 -12.70703125 101.80078125 C-12.71637695 99.72216797 -12.72572266 97.64355469 -12.73535156 95.50195312 C-12.76921003 88.61268339 -12.8248079 81.7237104 -12.89093399 74.83467865 C-12.93034203 70.66027824 -12.96256296 66.48608666 -12.97802734 62.31152344 C-12.99323829 58.27825187 -13.02776136 54.24555468 -13.07534027 50.21253967 C-13.09010859 48.67852284 -13.09806964 47.14442399 -13.0989151 45.6103363 C-13.0808214 34.11423437 -13.0808214 34.11423437 -17.70703125 23.80078125 C-22.49969435 19.13100694 -27.26643607 17.49453799 -33.89453125 17.30078125 C-40.60185714 17.43751043 -45.95491414 18.89806888 -50.70703125 23.80078125 C-56.3407104 31.92441673 -56.44353751 40.1331791 -56.4140625 49.65234375 C-56.4272024 51.16264825 -56.44251359 52.67293526 -56.45988464 54.18319702 C-56.49948064 58.12544153 -56.50990847 62.06722371 -56.51391602 66.00964355 C-56.52329587 70.04563193 -56.56073926 74.08135403 -56.59570312 78.1171875 C-56.66002001 86.01176982 -56.6908728 93.90595335 -56.70703125 101.80078125 C-65.61703125 101.80078125 -74.52703125 101.80078125 -83.70703125 101.80078125 C-83.70703125 66.49078125 -83.70703125 31.18078125 -83.70703125 -5.19921875 C-75.12703125 -5.19921875 -66.54703125 -5.19921875 -57.70703125 -5.19921875 C-57.21203125 1.73078125 -57.21203125 1.73078125 -56.70703125 8.80078125 C-55.75828125 7.60453125 -54.80953125 6.40828125 -53.83203125 5.17578125 C-39.94237163 -10.68204876 -17.08649301 -10.94730792 0 0 Z " fill="#F5EFE5" transform="translate(638.70703125,469.19921875)"/>
<path d="M0 0 C3.84476926 3.36309795 5.85452815 7.05069567 8.0625 11.5625 C8.58855835 12.62778931 8.58855835 12.62778931 9.12524414 13.71459961 C18.48407355 33.17788549 17.06154289 52.81988369 10.3125 72.8125 C6.21326097 84.22382569 -0.92911811 92.23006867 -9.5 100.5390625 C-12.22798038 103.22441818 -14.64176096 105.99121226 -17 109 C-15.35 109.33 -13.7 109.66 -12 110 C-12 110.66 -12 111.32 -12 112 C-18.5211866 113.52030949 -25.15072325 113.28798858 -31.8125 113.3125 C-32.86003952 113.31692612 -32.86003952 113.31692612 -33.92874146 113.32144165 C-44.4698099 113.33160662 -54.00721517 112.6254707 -64 109 C-64.89847656 108.69191406 -65.79695312 108.38382813 -66.72265625 108.06640625 C-68.50099872 107.42888725 -70.25615831 106.7266007 -72 106 C-71.01 105.01 -70.02 104.02 -69 103 C-67 103.66666667 -65 104.33333333 -63 105 C-63 105.66 -63 106.32 -63 107 C-58.71 107.66 -54.42 108.32 -50 109 C-50 108.01 -50 107.02 -50 106 C-50.66 106 -51.32 106 -52 106 C-52.36351562 105.05640625 -52.36351562 105.05640625 -52.734375 104.09375 C-54.37480629 99.90434087 -56.03995703 95.80230027 -58.125 91.8125 C-62.43121239 83.26788958 -63.86927762 73.1431391 -61.0625 63.8125 C-55.38479773 51.3371817 -41.04935099 42.00196308 -30.5625 33.6875 C-18.57483869 23.89227232 -8.47308868 12.93890483 0 0 Z " fill="#E8261C" transform="translate(270,508)"/>
<path d="M0 0 C8.91 0 17.82 0 27 0 C27 8.25 27 16.5 27 25 C33.93 25 40.86 25 48 25 C48 32.26 48 39.52 48 47 C41.07 47 34.14 47 27 47 C27.06889686 54.72329991 27.15687614 62.44605952 27.26245117 70.16894531 C27.29568038 72.79551191 27.3237185 75.42214957 27.34643555 78.04882812 C27.38001728 81.82713061 27.43233753 85.60478305 27.48828125 89.3828125 C27.49467117 90.55490265 27.5010611 91.7269928 27.50764465 92.93460083 C27.63256916 100.88630982 27.63256916 100.88630982 31 108 C34.3046409 110.55890335 37.69092623 110.20618148 41.75 110.125 C43.8125 110.08375 45.875 110.0425 48 110 C48 116.93 48 123.86 48 131 C43.24167398 132.58610867 38.42168201 132.26765133 33.4375 132.3125 C32.39013672 132.34150391 31.34277344 132.37050781 30.26367188 132.40039062 C21.82913194 132.46853793 14.55364276 130.81693758 7.625 125.8125 C1.54809008 119.30152509 -0.13125286 111.44515303 -0.11352539 102.7409668 C-0.11344986 101.50005783 -0.11337433 100.25914886 -0.11329651 98.9806366 C-0.10819072 97.63683023 -0.10297474 96.29302429 -0.09765625 94.94921875 C-0.09578965 93.56631013 -0.09436689 92.18340085 -0.09336853 90.80049133 C-0.08956237 87.17225294 -0.07974843 83.544055 -0.06866455 79.91583252 C-0.05840945 76.20886787 -0.05386215 72.50189664 -0.04882812 68.79492188 C-0.03812435 61.5299274 -0.02054306 54.26497454 0 47 C-5.94 47 -11.88 47 -18 47 C-18 39.74 -18 32.48 -18 25 C-12.06 25 -6.12 25 0 25 C0 16.75 0 8.5 0 0 Z " fill="#F5EFE5" transform="translate(727,439)"/>
<path d="M0 0 C9.9 0 19.8 0 30 0 C30 47.52 30 95.04 30 144 C20.1 144 10.2 144 0 144 C0 96.48 0 48.96 0 0 Z " fill="#F5EFE6" transform="translate(390,426)"/>
<path d="M0 0 C8.58 0 17.16 0 26 0 C26 35.31 26 70.62 26 107 C17.42 107 8.84 107 0 107 C0 71.69 0 36.38 0 0 Z " fill="#F4EEE5" transform="translate(671,464)"/>
<path d="M0 0 C8.01548192 4.74687351 11.71085258 11.27436323 14.09765625 20.125 C16.21927301 31.10150828 14.97672318 41.7829966 9.23046875 51.421875 C5.1995025 57.08011787 0.67755476 60.32583818 -6.25 61.5 C-13.14298135 62.22319804 -18.55227982 61.63821487 -24.25 57.5 C-30.79910233 51.78469542 -34.25771385 43.73580419 -34.8515625 35.1328125 C-34.88969372 33.2972544 -34.89691643 31.46082331 -34.875 29.625 C-34.86662109 28.66335938 -34.85824219 27.70171875 -34.84960938 26.7109375 C-34.56683515 17.80655773 -32.78949966 10.97755717 -26.24609375 4.5234375 C-18.67481884 -1.53932912 -9.22163838 -4.06255414 0 0 Z " fill="#131B22" transform="translate(497.25,486.5)"/>
<path d="M0 0 C6.86195383 4.12585831 10.34061978 9.90779481 12.5625 17.4375 C12.5625 18.7575 12.5625 20.0775 12.5625 21.4375 C-2.6175 21.4375 -17.7975 21.4375 -33.4375 21.4375 C-32.44282555 13.48010444 -30.84789706 7.47683 -24.8125 1.94921875 C-17.90580756 -2.79913231 -7.643105 -3.46605924 0 0 Z " fill="#131B22" transform="translate(843.4375,484.5625)"/>
<path d="M0 0 C4.11478266 2.5580493 7.20038944 5.44605592 9 10 C9.69276172 14.88155349 9.51739191 18.88243347 7.4375 23.375 C3.25360394 27.88073422 -0.45074677 30.19132559 -6.5625 30.5 C-11.00418952 30.28093708 -13.59372257 28.93098291 -17 26 C-17.78375 25.34 -18.5675 24.68 -19.375 24 C-21.99495981 19.16315111 -21.69965141 14.37128217 -21 9 C-18.91350416 4.1315097 -15.96032225 1.72891984 -11.2109375 -0.36328125 C-7.25311502 -1.50307818 -3.88862436 -1.33105242 0 0 Z " fill="#F3EDE5" transform="translate(690,421)"/>
<path d="M0 0 C0.66 0.33 1.32 0.66 2 1 C1.72285156 1.65226562 1.44570313 2.30453125 1.16015625 2.9765625 C0.79792969 3.85054688 0.43570313 4.72453125 0.0625 5.625 C-0.29714844 6.48351562 -0.65679687 7.34203125 -1.02734375 8.2265625 C-6.83279859 24.78026908 -2.66649096 43.33011384 4.61450195 58.578125 C13.02407413 75.3560735 26.15509302 89.35470721 39.4453125 102.39453125 C43.63380769 106.66628399 47.33284242 111.27950992 51 116 C51.80953125 117.03898437 52.6190625 118.07796875 53.453125 119.1484375 C57.1381443 123.9627369 60.41381646 128.49419417 63 134 C59.32647499 132.55570811 58.09908176 130.93711668 56.25 127.5 C51.42216715 119.05434811 45.28121511 111.91699338 38.1875 105.3125 C37 104 37 104 37 102 C36.34 102 35.68 102 35 102 C33.44921875 100.35546875 33.44921875 100.35546875 31.6875 98.1875 C29.00689191 95.00322859 26.59011142 93.11183025 23 91 C22.63837971 89.67405895 22.30271961 88.34061543 22 87 C21.0409375 86.5359375 21.0409375 86.5359375 20.0625 86.0625 C17.24536035 84.61124624 17.04126595 82.90066943 16 80 C15.01 79.505 15.01 79.505 14 79 C12.95191959 77.02477154 11.9479589 75.02518491 11 73 C10.34 73 9.68 73 9 73 C6.125 66.375 6.125 66.375 5 63 C4.01 63 3.02 63 2 63 C1.54166667 61.625 1.08333333 60.25 0.625 58.875 C0.34914062 58.05 0.07328125 57.225 -0.2109375 56.375 C-0.81878321 54.54544459 -1.41242675 52.71116641 -2 50.875 C-2.98501169 47.86744628 -2.98501169 47.86744628 -4.625 44.625 C-6.24456419 40.35523987 -6.15581874 37.51874356 -6 33 C-6.33 32.67 -6.66 32.34 -7 32 C-7.0999519 29.91864863 -7.12967207 27.83374472 -7.125 25.75 C-7.12757813 24.61046875 -7.13015625 23.4709375 -7.1328125 22.296875 C-7.01513205 19.37563091 -6.6658329 16.83561005 -6 14 C-5.82339844 13.18917969 -5.64679688 12.37835938 -5.46484375 11.54296875 C-5.29082031 10.76566406 -5.11679688 9.98835938 -4.9375 9.1875 C-4.76089844 8.39730469 -4.58429688 7.60710937 -4.40234375 6.79296875 C-4.26957031 6.20128906 -4.13679688 5.60960937 -4 5 C-6.90802461 7.21928194 -8.95312762 8.92969143 -11 12 C-11.99 12 -12.98 12 -14 12 C-14 12.66 -14 13.32 -14 14 C-15.09227819 15.12751298 -16.19213126 16.24813925 -17.31640625 17.34375 C-27.44415779 27.3070137 -34.03118305 37.69095594 -38.17578125 51.34375 C-39 54 -39 54 -40.10546875 56.59375 C-41.23230263 59.1970267 -41.23230263 59.1970267 -41 63 C-41.27361829 66.53178069 -41.57317325 70.06070359 -41.87890625 73.58984375 C-41.98787877 76.65865057 -41.66417864 79.03195171 -41 82 C-41.4375 84.8125 -41.4375 84.8125 -42 87 C-41.34 87 -40.68 87 -40 87 C-39.896875 88.175625 -39.79375 89.35125 -39.6875 90.5625 C-39.3260414 93.5657957 -38.70069612 96.00314429 -37.4375 98.75 C-36 102 -36 102 -36 106 C-36.66 106 -37.32 106 -38 106 C-38.81571218 103.43848317 -39.62766131 100.87587372 -40.4375 98.3125 C-40.66759766 97.59126953 -40.89769531 96.87003906 -41.13476562 96.12695312 C-41.46831055 95.06831055 -41.46831055 95.06831055 -41.80859375 93.98828125 C-42.01282959 93.34415283 -42.21706543 92.70002441 -42.42749023 92.03637695 C-47.66915305 73.39215113 -44.3509444 53.16885176 -35.75 36.1875 C-27.86023468 22.49593328 -18.27240939 11.5523682 -5 3 C-4.11699219 2.41863281 -3.23398438 1.83726562 -2.32421875 1.23828125 C-1.55722656 0.82964844 -0.79023438 0.42101562 0 0 Z " fill="#F6A622" transform="translate(255,353)"/>
<path d="M0 0 C6.23127031 4.56959823 8.75812478 9.30014601 10 17 C10.08515081 19.14618717 10.11776182 21.29475543 10.11352539 23.44262695 C10.11344986 24.72357742 10.11337433 26.00452789 10.11329651 27.32429504 C10.10819065 28.71229085 10.10297467 30.10028625 10.09765625 31.48828125 C10.09578975 32.91603038 10.09436694 34.34378015 10.09336853 35.77153015 C10.08956165 39.51813545 10.07974707 43.2647016 10.06866455 47.0112915 C10.05841102 50.83890249 10.05386248 54.66651984 10.04882812 58.49414062 C10.03812307 65.99611361 10.02054118 73.49804632 10 81 C17.92 81.33 25.84 81.66 34 82 C34 57.58 34 33.16 34 8 C34.33 8 34.66 8 35 8 C35 32.75 35 57.5 35 83 C26.09 83 17.18 83 8 83 C7.98598145 79.88208008 7.98598145 79.88208008 7.97167969 76.70117188 C7.93782122 69.81190214 7.88222335 62.92292915 7.81609726 56.0338974 C7.77668922 51.85949699 7.74446829 47.68530541 7.72900391 43.51074219 C7.71379296 39.47747062 7.67926989 35.44477343 7.63169098 31.41175842 C7.61692266 29.87774159 7.60896161 28.34364274 7.60811615 26.80955505 C7.63278425 15.30917157 7.63278425 15.30917157 3 5 C2.46066833 4.48062866 1.92133667 3.96125732 1.36566162 3.42614746 C0 2 0 2 0 0 Z " fill="#D9D7D4" transform="translate(618,488)"/>
<path d="M0 0 C1.48188486 2.96376971 1.52206461 6.11952699 1.875 9.375 C5.64874968 40.59704498 23.60618037 62.96686103 45.4453125 84.39453125 C49.63380769 88.66628399 53.33284242 93.27950992 57 98 C57.80953125 99.03898437 58.6190625 100.07796875 59.453125 101.1484375 C63.1381443 105.9627369 66.41381646 110.49419417 69 116 C65.32647499 114.55570811 64.09908176 112.93711668 62.25 109.5 C57.42216715 101.05434811 51.28121511 93.91699338 44.1875 87.3125 C43 86 43 86 43 84 C42.34 84 41.68 84 41 84 C39.44921875 82.35546875 39.44921875 82.35546875 37.6875 80.1875 C35.00689191 77.00322859 32.59011142 75.11183025 29 73 C28.63837971 71.67405895 28.30271961 70.34061543 28 69 C27.0409375 68.5359375 27.0409375 68.5359375 26.0625 68.0625 C23.24536035 66.61124624 23.04126595 64.90066943 22 62 C21.34 61.67 20.68 61.34 20 61 C18.95191959 59.02477154 17.9479589 57.02518491 17 55 C16.34 55 15.68 55 15 55 C12.125 48.375 12.125 48.375 11 45 C10.01 45 9.02 45 8 45 C7.54166667 43.625 7.08333333 42.25 6.625 40.875 C6.34914062 40.05 6.07328125 39.225 5.7890625 38.375 C5.18121679 36.54544459 4.58757325 34.71116641 4 32.875 C3.01498831 29.86744628 3.01498831 29.86744628 1.375 26.625 C-0.24456419 22.35523987 -0.15581874 19.51874356 0 15 C-0.33 14.67 -0.66 14.34 -1 14 C-1.0989294 11.83519203 -1.129711 9.66706215 -1.125 7.5 C-1.12757813 6.3140625 -1.13015625 5.128125 -1.1328125 3.90625 C-1 1 -1 1 0 0 Z " fill="#F18A20" transform="translate(249,371)"/>
<path d="M0 0 C5.94 0 11.88 0 18 0 C18.0677137 7.52768041 18.12277998 15.05524788 18.15543652 22.58315849 C18.17110825 26.07850309 18.19237331 29.57362896 18.22631836 33.06884766 C18.26507941 37.08498258 18.27969664 41.10088691 18.29296875 45.1171875 C18.30845261 46.37554413 18.32393646 47.63390076 18.33988953 48.9303894 C18.34011612 50.09144196 18.34034271 51.25249451 18.34057617 52.44873047 C18.34723801 53.47465302 18.35389984 54.50057556 18.36076355 55.55758667 C18.24171158 56.36358307 18.12265961 57.16957947 18 58 C17.01 58.66 16.02 59.32 15 60 C15 41.19 15 22.38 15 3 C10.38 3 5.76 3 1 3 C0.67 2.01 0.34 1.02 0 0 Z " fill="#1E2428" transform="translate(709,486)"/>
<path d="M0 0 C0.33 0 0.66 0 1 0 C1 21.12 1 42.24 1 64 C-7.91 64 -16.82 64 -26 64 C-26 63.34 -26 62.68 -26 62 C-17.75 62 -9.5 62 -1 62 C-1.01160156 59.70289063 -1.02320313 57.40578125 -1.03515625 55.0390625 C-1.10643346 36.66407809 -0.92821948 18.35702136 0 0 Z " fill="#D5D3D0" transform="translate(581,507)"/>
<path d="M0 0 C7.22973194 -0.47843814 13.03073774 -0.43767524 19 4 C23.80752427 8.31584565 26.18495054 12.84899907 28 19 C28 20.32 28 21.64 28 23 C12.82 23 -2.36 23 -18 23 C-17.67 21.68 -17.34 20.36 -17 19 C-16.34 19 -15.68 19 -15 19 C-15 19.66 -15 20.32 -15 21 C-1.8 21 11.4 21 25 21 C23.80439354 13.82636123 21.74658373 9.60925454 16.5 4.625 C11.22046948 2.1737894 5.74781854 1.64812197 0 1 C0 0.67 0 0.34 0 0 Z " fill="#101316" transform="translate(828,483)"/>
<path d="M0 0 C0.66 0.33 1.32 0.66 2 1 C1.45859375 2.33804687 1.45859375 2.33804687 0.90625 3.703125 C0.4421875 4.87359375 -0.021875 6.0440625 -0.5 7.25 C-0.9640625 8.41015625 -1.428125 9.5703125 -1.90625 10.765625 C-3.21356233 14.06248366 -3.21356233 14.06248366 -3 18 C-3.33461475 20.06576215 -3.69096388 22.12805804 -4.0625 24.1875 C-4.8563438 29.09940852 -5.00154146 33.22791265 -4.2265625 38.12109375 C-3.93179978 40.56559146 -4.3172498 42.64830487 -5 45 C-4.34 45 -3.68 45 -3 45 C-2.896875 46.175625 -2.79375 47.35125 -2.6875 48.5625 C-2.3260414 51.5657957 -1.70069612 54.00314429 -0.4375 56.75 C1 60 1 60 1 64 C0.34 64 -0.32 64 -1 64 C-1.81571218 61.43848317 -2.62766131 58.87587372 -3.4375 56.3125 C-3.78264648 55.2306543 -3.78264648 55.2306543 -4.13476562 54.12695312 C-4.35712891 53.42119141 -4.57949219 52.71542969 -4.80859375 51.98828125 C-5.11494751 51.02208862 -5.11494751 51.02208862 -5.42749023 50.03637695 C-9.77894901 34.55854425 -8.44920825 15.69637759 -2 1 C-1.34 0.67 -0.68 0.34 0 0 Z " fill="#F49A20" transform="translate(218,395)"/>
<path d="M0 0 C2.13262124 3.19893186 2.59021548 5.22998243 3 9 C2 10 2 10 0.05747986 10.12025452 C-0.79301437 10.11803391 -1.64350861 10.11581329 -2.51977539 10.11352539 C-3.96115623 10.11341209 -3.96115623 10.11341209 -5.43165588 10.11329651 C-6.476436 10.10813522 -7.52121613 10.10297394 -8.59765625 10.09765625 C-9.66165146 10.0962413 -10.72564667 10.09482635 -11.82188416 10.09336853 C-15.23545083 10.08775064 -18.648953 10.07519511 -22.0625 10.0625 C-24.37044176 10.05748731 -26.67838455 10.052924 -28.98632812 10.04882812 C-34.65757426 10.0377754 -40.32878253 10.02101987 -46 10 C-46.625 8.1875 -46.625 8.1875 -47 6 C-46.34 5.01 -45.68 4.02 -45 3 C-45 4.65 -45 6.3 -45 8 C-29.82 8 -14.64 8 1 8 C0.505 4.04 0.505 4.04 0 0 Z " fill="#D5D3D0" transform="translate(855,498)"/>
<path d="M0 0 C-0.144375 0.66902344 -0.28875 1.33804687 -0.4375 2.02734375 C-2.99475192 15.25757072 -3.17810997 28.09262456 1 41 C-3.36340913 38.09106058 -3.36700205 34.92648007 -4.4375 29.953125 C-5.4299153 22.97865077 -5.22718371 16.02586667 -5 9 C-6.98 9.33 -8.96 9.66 -11 10 C-10.06409496 8.8944811 -9.12620142 7.79064547 -8.1875 6.6875 C-7.66542969 6.07261719 -7.14335937 5.45773437 -6.60546875 4.82421875 C-2.35974304 0 -2.35974304 0 0 0 Z " fill="#F6771F" transform="translate(186,455)"/>
<path d="M0 0 C0.66 0 1.32 0 2 0 C2 8.25 2 16.5 2 25 C8.6 25 15.2 25 22 25 C22 25.33 22 25.66 22 26 C18.5430244 26.25417629 15.08471174 26.47407622 11.625 26.6875 C10.64015625 26.76033203 9.6553125 26.83316406 8.640625 26.90820312 C7.69960938 26.96298828 6.75859375 27.01777344 5.7890625 27.07421875 C4.91975098 27.13182373 4.05043945 27.18942871 3.15478516 27.2487793 C2.44370605 27.16668213 1.73262695 27.08458496 1 27 C-1.18475322 23.72287017 -1.2479325 22.76132616 -1.23046875 18.96484375 C-1.22853516 17.99095703 -1.22660156 17.01707031 -1.22460938 16.01367188 C-1.21236328 14.99853516 -1.20011719 13.98339844 -1.1875 12.9375 C-1.18685547 11.91849609 -1.18621094 10.89949219 -1.18554688 9.84960938 C-1.14040493 2.28080986 -1.14040493 2.28080986 0 0 Z " fill="#E4E1DB" transform="translate(752,439)"/>
<path d="M0 0 C5.94 0 11.88 0 18 0 C18 0.99 18 1.98 18 3 C13.05 3 8.1 3 3 3 C3 6.63 3 10.26 3 14 C2.67 14 2.34 14 2 14 C1.67 16.31 1.34 18.62 1 21 C0.67 21 0.34 21 0 21 C0 14.07 0 7.14 0 0 Z " fill="#EAE6DF" transform="translate(709,464)"/>
<path d="M0 0 C2.12109375 0.390625 2.12109375 0.390625 4 1 C-6.36985744 9.30019774 -18.08653716 15.61286221 -31 19 C-33.23828125 18.5625 -33.23828125 18.5625 -35 18 C-32.69631264 16.93347808 -30.35981813 15.93578995 -28 15 C-27.34 15.33 -26.68 15.66 -26 16 C-25.67 15.34 -25.34 14.68 -25 14 C-21.4681351 12.37725126 -17.91809481 11 -14 11 C-14 10.01 -14 9.02 -14 8 C-12.9171875 7.8453125 -12.9171875 7.8453125 -11.8125 7.6875 C-7.61776531 6.66212041 -4.85209242 4.92955536 -1.9375 1.75 C-0.9784375 0.88375 -0.9784375 0.88375 0 0 Z " fill="#F13922" transform="translate(294,600)"/>
<path d="M0 0 C1.16781006 0.00523682 2.33562012 0.01047363 3.53881836 0.01586914 C4.79887695 0.0190918 6.05893555 0.02231445 7.35717773 0.02563477 C8.6976732 0.03399136 10.03816799 0.04245632 11.37866211 0.05102539 C12.72306153 0.05603879 14.06746271 0.06060197 15.41186523 0.06469727 C18.71334151 0.07653051 22.01473014 0.09301568 25.31616211 0.11352539 C25.31616211 0.44352539 25.31616211 0.77352539 25.31616211 1.11352539 C16.40616211 1.11352539 7.49616211 1.11352539 -1.68383789 1.11352539 C-1.68383789 6.06352539 -1.68383789 11.01352539 -1.68383789 16.11352539 C-9.25526646 9.8278111 -9.25526646 9.8278111 -11.68383789 6.11352539 C-8.77840977 7.41595869 -6.87454179 8.82238807 -4.68383789 11.11352539 C-4.62325195 10.40325195 -4.56266602 9.69297852 -4.50024414 8.96118164 C-4.41645508 8.04208008 -4.33266602 7.12297852 -4.24633789 6.17602539 C-4.16512695 5.25950195 -4.08391602 4.34297852 -4.00024414 3.39868164 C-3.54445075 0.1068405 -3.37360155 0.14270215 0 0 Z " fill="#05080A" transform="translate(513.683837890625,462.886474609375)"/>
<path d="M0 0 C8.58 0 17.16 0 26 0 C26.33 1.32 26.66 2.64 27 4 C26.67 3.34 26.34 2.68 26 2 C18.41 2 10.82 2 3 2 C3.99 4.31 4.98 6.62 6 9 C5.67 9.99 5.34 10.98 5 12 C4.16440201 10.18854294 3.33157951 8.37580533 2.5 6.5625 C2.0359375 5.55316406 1.571875 4.54382813 1.09375 3.50390625 C0 1 0 1 0 0 Z " fill="#FBFAF7" transform="translate(437,578)"/>
<path d="M0 0 C4.47915328 -0.02886338 8.95828291 -0.04675187 13.4375 -0.0625 C14.71689453 -0.07087891 15.99628906 -0.07925781 17.31445312 -0.08789062 C19.13686523 -0.09272461 19.13686523 -0.09272461 20.99609375 -0.09765625 C22.12200928 -0.10289307 23.2479248 -0.10812988 24.40795898 -0.11352539 C27 0 27 0 28 1 C28.23192865 2.51469448 28.41215238 4.03754562 28.5625 5.5625 C28.68818359 6.80193359 28.68818359 6.80193359 28.81640625 8.06640625 C28.87699219 8.70449219 28.93757812 9.34257812 29 10 C30.32 8.68 31.64 7.36 33 6 C33.66 6.33 34.32 6.66 35 7 C33.69088122 8.50295185 32.37761608 10.00229311 31.0625 11.5 C30.33160156 12.3353125 29.60070312 13.170625 28.84765625 14.03125 C28.23792969 14.6809375 27.62820313 15.330625 27 16 C26.67 16 26.34 16 26 16 C26 11.05 26 6.1 26 1 C17.42 1 8.84 1 0 1 C0 0.67 0 0.34 0 0 Z " fill="#010204" transform="translate(555,463)"/>
<path d="M0 0 C2.38564077 0.57584432 4.66682784 1.22227595 7 2 C7 2.66 7 3.32 7 4 C11.29 4.66 15.58 5.32 20 6 C20.33 5.34 20.66 4.68 21 4 C21.66 5.65 22.32 7.3 23 9 C16.93392435 9.3908344 12.24751558 8.03396206 6.5625 6 C5.73556641 5.71382812 4.90863281 5.42765625 4.05664062 5.1328125 C2.03441032 4.43146095 0.01671572 3.71705448 -2 3 C-1.34 2.01 -0.68 1.02 0 0 Z " fill="#F03922" transform="translate(200,611)"/>
<path d="M0 0 C1.80411967 2.75924185 2.0127245 3.88972103 1.625 7.25 C1.41875 8.1575 1.2125 9.065 1 10 C1.66 10 2.32 10 3 10 C3.103125 11.175625 3.20625 12.35125 3.3125 13.5625 C3.6739586 16.5657957 4.29930388 19.00314429 5.5625 21.75 C7 25 7 25 7 29 C6.34 29 5.68 29 5 29 C-2.15336935 7.48709957 -2.15336935 7.48709957 0 0 Z " fill="#F98E1F" transform="translate(212,430)"/>
<path d="M0 0 C4.57350425 2.03266855 8.02161913 4.99715961 11.5 8.5625 C13.89239623 11.08221376 13.89239623 11.08221376 16.8125 12.6875 C17.534375 13.120625 18.25625 13.55375 19 14 C19 14.66 19 15.32 19 16 C19.99 15.67 20.98 15.34 22 15 C22 15.66 22 16.32 22 17 C23.32 17.66 24.64 18.32 26 19 C25.67 19.66 25.34 20.32 25 21 C15.35447681 15.29703857 6.87641722 8.92837772 0 0 Z " fill="#F64022" transform="translate(167,590)"/>
<path d="M0 0 C0.33 0.99 0.66 1.98 1 3 C0.34 3.66 -0.32 4.32 -1 5 C-1.99 5 -2.98 5 -4 5 C-4.66 6.98 -5.32 8.96 -6 11 C-6.66 11 -7.32 11 -8 11 C-8.28875 11.721875 -8.5775 12.44375 -8.875 13.1875 C-9.91666667 15.79166667 -10.95833333 18.39583333 -12 21 C-12.66 21 -13.32 21 -14 21 C-14.103125 21.598125 -14.20625 22.19625 -14.3125 22.8125 C-15.08876455 25.28243264 -16.07088921 26.32251235 -18 28 C-15.25614567 18.90337948 -9.92235768 10.4029471 -4 3 C-3.01 2.67 -2.02 2.34 -1 2 C-0.67 1.34 -0.34 0.68 0 0 Z " fill="#F56B1F" transform="translate(174,467)"/>
<path d="M0 0 C2 2 2 2 2.23046875 4.609375 C2.08681246 15.10934394 2.08681246 15.10934394 1 20 C0.01 20 -0.98 20 -2 20 C-1.85953745 17.04132082 -1.71287776 14.08317736 -1.5625 11.125 C-1.52318359 10.28324219 -1.48386719 9.44148437 -1.44335938 8.57421875 C-1.40146484 7.76855469 -1.35957031 6.96289062 -1.31640625 6.1328125 C-1.27974854 5.38918457 -1.24309082 4.64555664 -1.20532227 3.87939453 C-1 2 -1 2 0 0 Z " fill="#23272B" transform="translate(510,508)"/>
<path d="M0 0 C3.75 0.8125 3.75 0.8125 7 2 C7 2.66 7 3.32 7 4 C3.28111134 4.8632601 -0.14296488 5.11721556 -3.95703125 5.09765625 C-5.06884766 5.09443359 -6.18066406 5.09121094 -7.32617188 5.08789062 C-8.47666016 5.07951172 -9.62714844 5.07113281 -10.8125 5.0625 C-12.56723633 5.05573242 -12.56723633 5.05573242 -14.35742188 5.04882812 C-17.23833358 5.0370693 -20.11914044 5.02063426 -23 5 C-23 4.67 -23 4.34 -23 4 C-22.44538086 3.98541748 -21.89076172 3.97083496 -21.31933594 3.95581055 C-18.79553758 3.88113103 -16.27303346 3.78453975 -13.75 3.6875 C-12.87730469 3.66494141 -12.00460938 3.64238281 -11.10546875 3.61914062 C-6.3472739 3.41936909 -3.70166057 3.20336011 0 0 Z " fill="#F63221" transform="translate(251,616)"/>
<path d="M0 0 C4.94260085 2.50387877 8.16385306 6.13209197 11.8125 10.1875 C12.40998047 10.84169922 13.00746094 11.49589844 13.62304688 12.16992188 C15.08750634 13.77496945 16.54451007 15.38681423 18 17 C17.67 17.66 17.34 18.32 17 19 C15.36828877 17.59106853 13.74486055 16.17254042 12.125 14.75 C10.76761719 13.56664062 10.76761719 13.56664062 9.3828125 12.359375 C7.22453221 10.22232369 6.23611178 8.69914262 5 6 C4.319375 5.67 3.63875 5.34 2.9375 5 C1 4 1 4 0.25 1.875 C0.1675 1.25625 0.085 0.6375 0 0 Z " fill="#FA8C1F" transform="translate(272,434)"/>
<path d="M0 0 C0.05397335 2.4377963 0.09365616 4.87439685 0.125 7.3125 C0.15013672 8.34793945 0.15013672 8.34793945 0.17578125 9.40429688 C0.21217794 13.17135396 0.14378864 14.78431704 -2 18 C-2.33 13.71 -2.66 9.42 -3 5 C-3.99 5.99 -4.98 6.98 -6 8 C-6.66 7.67 -7.32 7.34 -8 7 C-6.8572081 5.83035398 -5.71068285 4.66435444 -4.5625 3.5 C-3.92441406 2.8503125 -3.28632813 2.200625 -2.62890625 1.53125 C-1 0 -1 0 0 0 Z " fill="#101315" transform="translate(512,555)"/>
<path d="M0 0 C5.28 0.33 10.56 0.66 16 1 C15.67 1.99 15.34 2.98 15 4 C13.06372231 4.10807131 11.12572244 4.1856225 9.1875 4.25 C7.56908203 4.31960938 7.56908203 4.31960938 5.91796875 4.390625 C4.47357422 4.19726562 4.47357422 4.19726562 3 4 C2.01 2.68 1.02 1.36 0 0 Z " fill="#1E2429" transform="translate(759,546)"/>
<path d="M0 0 C0.33 0 0.66 0 1 0 C1 5.61 1 11.22 1 17 C0.01 17.33 -0.98 17.66 -2 18 C-2 14.04 -2 10.08 -2 6 C-1.34 6 -0.68 6 0 6 C0 4.02 0 2.04 0 0 Z " fill="#ED4820" transform="translate(329,523)"/>
<path d="M0 0 C0.99 0 1.98 0 3 0 C1.68139111 4.61513112 -0.21355437 8.09897612 -3 12 C-4.21386936 8.35839192 -3.6674695 7.66834531 -2.0625 4.3125 C-1.49208984 3.10013672 -1.49208984 3.10013672 -0.91015625 1.86328125 C-0.60980469 1.24839844 -0.30945313 0.63351562 0 0 Z " fill="#E4E2DE" transform="translate(877,544)"/>
<path d="M0 0 C0 0.66 0 1.32 0 2 C0.66 2.33 1.32 2.66 2 3 C1.01 3.495 1.01 3.495 0 4 C-0.66 3.71125 -1.32 3.4225 -2 3.125 C-6.24724098 1.53228463 -10.50046969 1.33200418 -15 1 C-15 0.67 -15 0.34 -15 0 C-9.77254141 -1.2063366 -5.23471686 -0.75612577 0 0 Z " fill="#DFDDD9" transform="translate(844,482)"/>
<path d="M0 0 C0.66 0 1.32 0 2 0 C2.33 5.61 2.66 11.22 3 17 C2.01 17.33 1.02 17.66 0 18 C0 12.06 0 6.12 0 0 Z " fill="#FD4921" transform="translate(285,542)"/>
<path d="M0 0 C0.33 0.99 0.66 1.98 1 3 C1.66 3 2.32 3 3 3 C3 7.95 3 12.9 3 18 C2.67 18 2.34 18 2 18 C1.67 14.37 1.34 10.74 1 7 C0.67 7 0.34 7 0 7 C0 4.69 0 2.38 0 0 Z " fill="#211F24" transform="translate(183,467)"/>
<path d="M0 0 C3.36338044 3.36338044 4 6.28835716 4 11 C3.34 11 2.68 11 2 11 C1.01 7.7 0.02 4.4 -1 1 C-0.67 0.67 -0.34 0.34 0 0 Z " fill="#EF811F" transform="translate(215,448)"/>
<path d="M0 0 C0.12375 0.639375 0.2475 1.27875 0.375 1.9375 C0.58125 2.618125 0.7875 3.29875 1 4 C1.66 4.33 2.32 4.66 3 5 C2.67 7.64 2.34 10.28 2 13 C-0.20914 9.68629 -0.22481553 8.6553979 -0.125 4.8125 C-0.10695312 3.91144531 -0.08890625 3.01039063 -0.0703125 2.08203125 C-0.04710937 1.39496094 -0.02390625 0.70789063 0 0 Z " fill="#EC4C21" transform="translate(147,523)"/>
<path d="M0 0 C0.66 0 1.32 0 2 0 C2.33 2.97 2.66 5.94 3 9 C2.01 9.33 1.02 9.66 0 10 C0 6.7 0 3.4 0 0 Z " fill="#E5E3DE" transform="translate(879,498)"/>
<path d="M0 0 C1.32 1.32 2.64 2.64 4 4 C3.67 4.66 3.34 5.32 3 6 C1.68 6 0.36 6 -1 6 C-2.98 6.99 -2.98 6.99 -5 8 C-3.35 5.36 -1.7 2.72 0 0 Z " fill="#F22B16" transform="translate(270,508)"/>
<path d="M0 0 C0.66 0 1.32 0 2 0 C1.34 2.97 0.68 5.94 0 9 C-0.99 8.34 -1.98 7.68 -3 7 C-2.67 5.68 -2.34 4.36 -2 3 C-1.34 3 -0.68 3 0 3 C0 2.01 0 1.02 0 0 Z " fill="#F04220" transform="translate(326,552)"/>
<path d="M0 0 C0.99 0 1.98 0 3 0 C3 2.31 3 4.62 3 7 C2.34 7 1.68 7 1 7 C0.67 4.69 0.34 2.38 0 0 Z " fill="#E8E5DF" transform="translate(782,505)"/>
<path d="M0 0 C2 1 2 1 3.1875 3.8125 C3.96421451 6.85961076 4.10096399 8.13749363 3 11 C0.87953208 7.46588679 0.46800711 4.05606165 0 0 Z " fill="#F9A020" transform="translate(251,394)"/>
<path d="M0 0 C2.8125 -0.1875 2.8125 -0.1875 6 0 C6.99 0.99 7.98 1.98 9 3 C6.03 3 3.06 3 0 3 C0 2.01 0 1.02 0 0 Z " fill="#E7E4DF" transform="translate(823,570)"/>
<path d="M0 0 C0.99 0.33 1.98 0.66 3 1 C4.31035007 4.17242648 5 6.55881664 5 10 C2.35534962 6.8745041 1.15585285 3.91211733 0 0 Z " fill="#EA4320" transform="translate(152,565)"/>
<path d="M0 0 C0.66 0.33 1.32 0.66 2 1 C-0.57784846 3.64752004 -2.91648098 5.94432065 -6 8 C-4.55746343 4.63408134 -2.66735273 2.48952921 0 0 Z " fill="#FAB020" transform="translate(238,365)"/>
<path d="M0 0 C0.33 0 0.66 0 1 0 C1.05422947 1.4370809 1.09289723 2.87475462 1.125 4.3125 C1.14820313 5.11300781 1.17140625 5.91351562 1.1953125 6.73828125 C1 9 1 9 -1 12 C-1.33 10.02 -1.66 8.04 -2 6 C-1.67 6 -1.34 6 -1 6 C-0.67 4.02 -0.34 2.04 0 0 Z " fill="#EBE6DD" transform="translate(513,564)"/>
<path d="M0 0 C0 3 0 3 -2.5 5.6875 C-3.325 6.450625 -4.15 7.21375 -5 8 C-5.33 6.35 -5.66 4.7 -6 3 C-5.38125 2.87625 -4.7625 2.7525 -4.125 2.625 C-1.80879168 2.12802644 -1.80879168 2.12802644 0 0 Z " fill="#192129" transform="translate(871,560)"/>
</svg>
